<svg xmlns="http://www.w3.org/2000/svg" viewBox="0 12.600000381469727 249.25 32.400001525878906" data-asc="0.9" width="249.25" height="32.400001525878906"><defs/><g fill="#ffffff"><g transform="translate(0, 0)"><path d="M36.10 45L28.95 45L28.55 35.20L27.65 24.60L27.15 24.60L20.75 41.75L14.55 41.75L8.95 24.60L8.40 24.60L7.40 34.45L6.75 45L0 45L3.20 12.75L12.55 12.75L13.70 17.45L17.85 31.25L18.35 31.25L22.85 17.60L24.15 12.75L33.35 12.75L36.10 45ZM68.10 45L59.85 45L59 40.35L58.55 38.50L52.75 38.40L47.75 38.55L47.35 39.85L46.45 45L38.50 45L48.90 12.75L58.65 12.75L68.10 45M57 32.40L53.85 20.15L53.35 20.15L49.60 32.40L53.30 32.50L57 32.40ZM99.85 34.80L100.15 45L91.35 45L79.90 25.05L79.40 25.05L79.35 33.65L79.65 45L72.30 45L72.70 35.50L72.30 12.75L81.05 12.75L92.55 32.70L93.05 32.70L92.85 13.05L100.30 12.60L99.85 34.80ZM141.75 45L134.60 45L134.20 35.20L133.30 24.60L132.80 24.60L126.40 41.75L120.20 41.75L114.60 24.60L114.05 24.60L113.05 34.45L112.40 45L105.65 45L108.85 12.75L118.20 12.75L119.35 17.45L123.50 31.25L124.00 31.25L128.50 17.60L129.80 12.75L139 12.75L141.75 45ZM155.20 34.65L155.50 45L147.35 45L147.80 35.45L147.35 12.75L155.65 12.75L155.20 34.65ZM184.00 13.35L183.55 19.30L177.25 19L175.85 19L175.60 34.65L175.90 45L167.80 45L168.25 35.45L168.00 19L166.50 19L160.15 19.30L159.65 18.70L160.15 12.75L183.55 12.75L184.00 13.35ZM215.65 34.65L215.95 45L207.85 45L208.25 35.45L208.20 32.20L201.70 32.15L195.95 32.30L195.90 34.65L196.20 45L188.10 45L188.50 35.45L188.10 12.75L196.30 12.75L196.05 25.60L202.20 25.70L208.10 25.60L207.85 12.75L216.10 12.75L215.65 34.65ZM249.25 45L241.00 45L240.15 40.35L239.70 38.50L233.90 38.40L228.90 38.55L228.50 39.85L227.60 45L219.65 45L230.05 12.75L239.80 12.75L249.25 45M238.15 32.40L235.00 20.15L234.50 20.15L230.75 32.40L234.45 32.50L238.15 32.40Z"/></g></g></svg>